<?xml version="1.0" encoding="UTF-8" standalone="no"?>
<svg width="100px" height="100px" viewBox="0 0 100 100" version="1.1" xmlns="http://www.w3.org/2000/svg" xmlns:xlink="http://www.w3.org/1999/xlink" xmlns:sketch="http://www.bohemiancoding.com/sketch/ns">
    <!-- Generator: Sketch 3.4.4 (17249) - http://www.bohemiancoding.com/sketch -->
    <title>clock</title>
    <desc>Created with Sketch.</desc>
    <defs></defs>
    <g id="assets" stroke="none" stroke-width="1" fill="none" fill-rule="evenodd" sketch:type="MSPage">
        <g id="noun_200101_cc" sketch:type="MSLayerGroup" fill="#000000">
            <g id="Group" sketch:type="MSShapeGroup">
                <path d="M50,99.2864583 C49.2604167,99.284375 48.5208333,99.2697917 47.7822917,99.2375 C46.1166667,99.1635417 44.45625,99.00625 42.8072917,98.7645833 C38.3927083,98.1177083 34.071875,96.865625 29.9958333,95.0510417 C25.1083333,92.8760417 20.5854167,89.8979167 16.6489583,86.2770833 C12.5770833,82.5302083 9.13854167,78.1020833 6.52604167,73.225 C4.29166667,69.0541667 2.66458333,64.5614583 1.715625,59.9260417 C0.626041667,54.609375 0.423958333,49.1114583 1.109375,43.7291667 C1.75,38.6979167 3.175,33.7729167 5.321875,29.178125 C7.79270833,23.8885417 11.2125,19.0510417 15.365625,14.946875 C19.7333333,10.6302083 24.9041667,7.13645833 30.5458333,4.70833333 C33.6083333,3.38958333 36.80625,2.384375 40.0739583,1.715625 C43.1302083,1.08958333 46.2447917,0.757291667 49.3635417,0.717708333 C52.496875,0.677083333 55.6333333,0.932291667 58.7177083,1.48333333 C62.0104167,2.07291667 65.2416667,3 68.3458333,4.246875 C74.0510417,6.53854167 79.309375,9.91041667 83.784375,14.1260417 C88.103125,18.1947917 91.68125,23.0395833 94.2916667,28.36875 C96.5166667,32.9135417 98.0302083,37.8 98.7645833,42.80625 C99.5364583,48.0770833 99.4541667,53.4739583 98.5166667,58.7177083 C97.68125,63.3875 96.1635417,67.93125 94.025,72.165625 C91.5302083,77.109375 88.1958333,81.6208333 84.2114583,85.465625 C80.2947917,89.2458333 75.7541667,92.3739583 70.821875,94.678125 C66.7885417,96.5625 62.5010417,97.8927083 58.109375,98.6208333 C56.575,98.8760417 55.0270833,99.0572917 53.475,99.165625 C52.6354167,99.2239583 51.7947917,99.2583333 50.953125,99.2770833 C50.6354167,99.2822917 50.3177083,99.2854167 50,99.2864583 L50,99.2864583 Z M50,94.4635417 C50.66875,94.4614583 51.3364583,94.4489583 52.0041667,94.41875 C53.50625,94.3520833 55.00625,94.2104167 56.49375,93.9927083 C60.4729167,93.409375 64.36875,92.2802083 68.0427083,90.6447917 C72.534375,88.6458333 76.684375,85.8947917 80.2822917,82.5458333 C83.9375,79.1427083 87.0177083,75.1270833 89.3489583,70.7104167 C91.2989583,67.0166667 92.721875,63.0489583 93.559375,58.9583333 C94.5427083,54.159375 94.725,49.196875 94.10625,44.3375 C93.5291667,39.8020833 92.2447917,35.3625 90.309375,31.2197917 C88.0791667,26.4458333 84.9927083,22.08125 81.2447917,18.378125 C77.303125,14.4822917 72.6385417,11.3291667 67.5479167,9.1375 C64.7864583,7.94895833 61.903125,7.04375 58.9583333,6.440625 C56.2,5.875 53.3895833,5.57604167 50.575,5.53958333 C47.746875,5.50416667 44.915625,5.73333333 42.13125,6.23125 C39.1635417,6.7625 36.25,7.59791667 33.4520833,8.721875 C28.3052083,10.7895833 23.5604167,13.8322917 19.5229167,17.6364583 C15.6260417,21.3083333 12.3958333,25.6802083 10.040625,30.4895833 C8.034375,34.5875 6.66875,38.9927083 6.00729167,43.50625 C5.296875,48.3552083 5.38854167,53.3229167 6.28125,58.1416667 C7.06041667,62.3447917 8.453125,66.4291667 10.4020833,70.2322917 C12.640625,74.6 15.60625,78.5875 19.1375,81.9947917 C22.6072917,85.34375 26.61875,88.1260417 30.9760417,90.19375 C34.5979167,91.9135417 38.453125,93.1354167 42.4052083,93.8166667 C43.7875,94.0552083 45.1802083,94.2270833 46.5791667,94.3333333 C47.3354167,94.3916667 48.09375,94.4270833 48.8520833,94.4489583 C49.234375,94.4572917 49.6177083,94.4625 50,94.4635417 L50,94.4635417 Z" id="Shape"></path>
                <g transform="translate(46.875000, 10.416667)" id="Shape">
                    <path d="M3.06770833,42.2333333 C2.89479167,42.2208333 2.85,42.221875 2.68020833,42.190625 C2.4875,42.1552083 2.3,42.0989583 2.11979167,42.0229167 C1.39583333,41.7145833 0.833333333,41.0875 0.60625,40.3333333 C0.55,40.1458333 0.514583333,39.953125 0.5,39.7583333 C0.495833333,39.69375 0.495833333,39.628125 0.492708333,39.5635417 L0.492708333,3.06145833 C0.5,2.88854167 0.496875,2.84479167 0.521875,2.67291667 C0.559375,2.41458333 0.635416667,2.16354167 0.745833333,1.92708333 C0.884375,1.63229167 1.07604167,1.36354167 1.31041667,1.13854167 C1.49791667,0.957291667 1.71145833,0.804166667 1.94375,0.685416667 C2.703125,0.294791667 3.62708333,0.294791667 4.38645833,0.685416667 C4.61875,0.804166667 4.83229167,0.957291667 5.01979167,1.13854167 C5.39479167,1.5 5.659375,1.97083333 5.77291667,2.48020833 C5.80104167,2.60729167 5.81979167,2.73645833 5.83020833,2.86666667 C5.834375,2.93125 5.834375,2.996875 5.83645833,3.06145833 L5.83645833,39.5635417 C5.834375,39.628125 5.834375,39.69375 5.83020833,39.7583333 C5.815625,39.953125 5.78020833,40.1458333 5.72395833,40.3333333 C5.496875,41.0875 4.934375,41.7145833 4.21041667,42.0229167 C4.03020833,42.0989583 3.84270833,42.1552083 3.65,42.190625 C3.47916667,42.221875 3.43541667,42.2208333 3.2625,42.2333333 L3.06770833,42.2333333 L3.06770833,42.2333333 Z"></path>
                    <g transform="translate(14.523747, 39.510899) rotate(90.000000) translate(-14.523747, -39.510899) translate(11.398747, 26.223546)">
                        <path d="M3.06770833,26.2791426 C2.89479167,26.2713647 2.85,26.2720128 2.68020833,26.2525679 C2.4875,26.2305304 2.3,26.1955295 2.11979167,26.1482136 C1.39583333,25.9563572 0.833333333,25.5661627 0.60625,25.0968923 C0.55,24.9802229 0.514583333,24.8603126 0.5,24.7391061 C0.495833333,24.6989199 0.495833333,24.6580856 0.492708333,24.6178995 L0.492708333,1.90495265 C0.5,1.7973575 0.496875,1.77013463 0.521875,1.66318765 C0.559375,1.50244309 0.635416667,1.34623568 0.745833333,1.19910255 C0.884375,1.01567227 1.07604167,0.848446076 1.31041667,0.708442751 C1.49791667,0.595662295 1.71145833,0.500382254 1.94375,0.42649161 C2.703125,0.183430282 3.62708333,0.183430282 4.38645833,0.42649161 C4.61875,0.500382254 4.83229167,0.595662295 5.01979167,0.708442751 C5.39479167,0.9333555 5.659375,1.22632542 5.77291667,1.54327739 C5.80104167,1.62235334 5.81979167,1.70272562 5.83020833,1.78374607 C5.834375,1.82393221 5.834375,1.86476651 5.83645833,1.90495265 L5.83645833,24.6178995 C5.834375,24.6580856 5.834375,24.6989199 5.83020833,24.7391061 C5.815625,24.8603126 5.78020833,24.9802229 5.72395833,25.0968923 C5.496875,25.5661627 4.934375,25.9563572 4.21041667,26.1482136 C4.03020833,26.1955295 3.84270833,26.2305304 3.65,26.2525679 C3.47916667,26.2720128 3.43541667,26.2713647 3.2625,26.2791426 L3.06770833,26.2791426 L3.06770833,26.2791426 Z"></path>
                    </g>
                </g>
            </g>
        </g>
    </g>
</svg>