<?xml version="1.0" encoding="UTF-8" standalone="no"?>
<svg width="53px" height="53px" viewBox="0 0 53 53" version="1.1" xmlns="http://www.w3.org/2000/svg" xmlns:xlink="http://www.w3.org/1999/xlink" xmlns:sketch="http://www.bohemiancoding.com/sketch/ns">
    <!-- Generator: Sketch 3.4.4 (17249) - http://www.bohemiancoding.com/sketch -->
    <title>facebook-icn</title>
    <desc>Created with Sketch.</desc>
    <defs>
        <filter x="-50%" y="-50%" width="200%" height="200%" filterUnits="objectBoundingBox" id="filter-1">
            <feOffset dx="0" dy="2" in="SourceAlpha" result="shadowOffsetOuter1"></feOffset>
            <feGaussianBlur stdDeviation="2" in="shadowOffsetOuter1" result="shadowBlurOuter1"></feGaussianBlur>
            <feColorMatrix values="0 0 0 0 0   0 0 0 0 0   0 0 0 0 0  0 0 0 0.35 0" in="shadowBlurOuter1" type="matrix" result="shadowMatrixOuter1"></feColorMatrix>
            <feMerge>
                <feMergeNode in="shadowMatrixOuter1"></feMergeNode>
                <feMergeNode in="SourceGraphic"></feMergeNode>
            </feMerge>
        </filter>
        <ellipse id="path-2" cx="22.450756" cy="22.6523993" rx="22.450756" ry="22.6523993"></ellipse>
    </defs>
    <g id="assets" stroke="none" stroke-width="1" fill="none" fill-rule="evenodd" sketch:type="MSPage">
        <g id="facebook-icn" sketch:type="MSLayerGroup" transform="translate(4.000000, 2.000000)">
            <g id="Oval-19" filter="url(#filter-1)">
                <use fill="#BA68C8" fill-rule="evenodd" sketch:type="MSShapeGroup" xlink:href="#path-2"></use>
                <use fill="none" xlink:href="#path-2"></use>
            </g>
            <g id="facebook31" transform="translate(15.434895, 8.494650)" fill="#FFFFFF" sketch:type="MSShapeGroup">
                <g id="Icons">
                    <path d="M2.72957093,5.48408296 L2.72957093,9.38249796 L0,9.38249796 L0,14.1495696 L2.72957093,14.1495696 L2.72957093,28.3154992 L8.33694791,28.3154992 L8.33694791,14.1498842 L12.0993538,14.1498842 C12.0993538,14.1498842 12.4517505,11.8641942 12.6225366,9.36487943 L8.35799549,9.36487943 L8.35799549,6.10545085 C8.35799549,5.61842427 8.96927746,4.96307777 9.57364379,4.96307777 L12.6285502,4.96307777 L12.6285502,0.000314616658 L8.47495992,0.000314616658 C2.59095755,5.75448977e-14 2.72957093,4.77179084 2.72957093,5.48408296 L2.72957093,5.48408296 Z" id="Facebook"></path>
                </g>
            </g>
        </g>
    </g>
</svg>