<?xml version="1.0" encoding="UTF-8" standalone="no"?>
<svg width="169px" height="100px" viewBox="0 0 169 100" version="1.1" xmlns="http://www.w3.org/2000/svg" xmlns:xlink="http://www.w3.org/1999/xlink" xmlns:sketch="http://www.bohemiancoding.com/sketch/ns">
    <!-- Generator: Sketch 3.4.4 (17249) - http://www.bohemiancoding.com/sketch -->
    <title>friends</title>
    <desc>Created with Sketch.</desc>
    <defs></defs>
    <g id="assets" stroke="none" stroke-width="1" fill="none" fill-rule="evenodd" sketch:type="MSPage">
        <g id="noun_167506_cc" sketch:type="MSLayerGroup" transform="translate(0.000000, 2.000000)" fill="#000000">
            <g id="Group" sketch:type="MSShapeGroup">
                <path d="M159.316737,26.4987386 L159.316737,26.4987386 C162.362776,23.1812126 164.86488,19.3198298 164.86488,14.4251192 C164.86488,11.8146069 164.048976,9.44883017 162.689138,7.43656028 C160.023853,2.89535659 154.883663,0.284844295 149.199536,0.284844295 L148.845978,0.284844295 L148.49242,0.284844295 C142.808294,0.284844295 137.668103,2.89535659 135.002819,7.43656028 C133.64298,9.44883017 132.827077,11.7874141 132.827077,14.4251192 C132.827077,18.123345 134.241309,21.2505212 136.253871,23.9698048 C136.634625,24.4864687 136.253871,25.1934825 135.628345,25.1934825 L126.490228,25.1934825 C126.055079,25.1934825 125.728718,25.5469893 125.728718,25.9548819 L125.728718,32.1548486 L125.728718,46.8933659 L125.674324,46.8933659 L116.34583,55.1327954 L107.017335,46.8933659 L106.962942,46.8933659 L106.962942,24.6224329 L106.962942,24.6224329 L100.000567,24.6224329 L96.7641505,24.6224329 C99.1030733,21.7127994 100.789274,18.3408877 100.789274,14.3163479 C100.789274,11.7058356 99.9733702,9.34005883 98.6135314,7.32778893 C95.9482472,2.78658525 90.8080564,0.176072949 85.12393,0.176072949 L84.7703719,0.176072949 L84.4168138,0.176072949 C78.7326875,0.176072949 73.5924967,2.78658525 70.9272125,7.32778893 C69.5673737,9.34005883 68.7514704,11.6786428 68.7514704,14.3163479 C68.7514704,18.3680805 70.4648673,21.7127994 72.7765934,24.6224329 L69.5401769,24.6224329 L62.577802,24.6224329 L62.577802,46.8933659 L62.5234085,46.8933659 L53.1677172,55.1599882 L43.812026,46.8933659 L43.7576325,46.8933659 L43.7576325,32.1548486 L43.7576325,25.9548819 C43.7576325,25.5197965 43.4040744,25.1934825 42.9961227,25.1934825 L33.8580057,25.1934825 C33.2324798,25.1934825 32.8517249,24.4864687 33.2324798,23.9698048 C35.2450413,21.2233283 36.6592737,18.123345 36.6592737,14.4251192 C36.6592737,11.8146069 35.8433704,9.44883017 34.4835315,7.43656028 C31.8182474,2.89535659 26.6780566,0.284844295 20.9939302,0.284844295 L20.6403721,0.284844295 L20.286814,0.284844295 C14.6026877,0.284844295 9.46249684,2.89535659 6.79721271,7.43656028 C5.43737387,9.44883017 4.62147056,11.7874141 4.62147056,14.4251192 C4.62147056,19.292637 7.09637726,23.1812126 10.169613,26.4987386 L10.169613,26.4987386 C4.4582899,29.5443363 0.405970149,35.1732534 0.405970149,42.2161981 C0.405970149,50.9450986 7.93947734,58.7766355 17.0775944,60.0003131 C17.5399396,60.0546988 17.9478912,59.7011919 17.9478912,59.2389137 L17.9478912,53.6643822 C17.9478912,53.3108753 17.7031202,52.9845613 17.3495621,52.9029828 C11.9917971,51.706498 7.91228056,47.4100298 7.91228056,42.1618124 C7.91228056,37.9469228 10.0064324,34.4934325 13.2428488,32.3451984 C13.3788327,32.2636199 13.5148166,32.2092343 13.6779973,32.2092343 L36.006551,32.2092343 C36.4416995,32.2092343 36.7680608,32.5627411 36.7680608,32.9706337 L36.7680608,46.9477516 L36.7680608,49.7758066 C36.7680608,49.9933493 36.8496511,50.210892 37.0128318,50.3468562 L48.3538877,60.4625913 C48.4898716,60.5985555 48.6802491,60.6529412 48.8706265,60.6529412 L51.4543203,60.6529412 L57.0296596,60.6529412 L57.2472338,60.6529412 C57.3832177,60.6529412 57.5192015,60.5985555 57.6279886,60.5441698 C57.8183661,60.4625913 58.0087435,60.35382 58.1447274,60.2178558 L68.914651,50.6187845 C69.2682091,50.2924705 69.4857834,49.8301923 69.4857834,49.3407212 L69.4857834,46.9205588 L69.4857834,46.9205588 L69.4857834,33.2969477 C69.4857834,32.3451984 70.2472931,31.583799 71.1991803,31.583799 L95.6490827,31.583799 L95.6490827,31.583799 L98.2599733,31.583799 C99.2118605,31.583799 99.9733702,32.3451984 99.9733702,33.2969477 L99.9733702,46.9205588 L99.9733702,46.9205588 L99.9733702,49.3407212 C99.9733702,49.8301923 100.190944,50.2924705 100.544503,50.6187845 L111.314426,60.2178558 C111.423213,60.3266271 111.559197,60.3810128 111.667984,60.4625913 C111.803968,60.5713627 111.967149,60.6529412 112.157526,60.6529412 L120.534134,60.6529412 C120.724511,60.6529412 120.914888,60.5713627 121.050872,60.4625913 L132.391928,50.3468562 C132.555109,50.210892 132.636699,49.9933493 132.636699,49.7758066 L132.636699,46.9477516 L132.636699,32.9706337 C132.636699,32.5355483 132.990257,32.2092343 133.398209,32.2092343 L155.726763,32.2092343 C155.889943,32.2092343 156.025927,32.2636199 156.161911,32.3451984 C159.398328,34.4934325 161.492479,37.9469228 161.492479,42.1618124 C161.492479,47.4100298 157.412963,51.6793052 152.055198,52.9029828 C151.70164,52.9845613 151.456869,53.3108753 151.456869,53.6643822 L151.456869,59.2117208 C151.456869,59.6739991 151.86482,60.0275059 152.327166,59.9731203 C161.438086,58.7766355 168.99879,50.9450986 168.99879,42.1890052 C169.08038,35.1732534 165.02806,29.5443363 159.316737,26.4987386 L159.316737,26.4987386 Z M22.8977046,24.9759398 C22.7617207,25.111904 22.5713433,25.1934825 22.3809658,25.1934825 L18.9813687,25.1934825 C18.7909913,25.1934825 18.6006139,25.111904 18.46463,24.9759398 C14.6298844,21.4136782 12.2093713,18.5040447 12.2093713,14.8330118 C12.2093713,10.2918081 15.908133,7.24621042 20.6947657,7.21901759 C25.4813984,7.21901759 29.1801601,10.2918081 29.1801601,14.8330118 C29.1801601,18.5312375 26.7324501,21.4136782 22.8977046,24.9759398 L22.8977046,24.9759398 Z M87.7620174,24.1601547 C87.4356561,24.4592759 87.0277044,24.6224329 86.592556,24.6224329 L82.9753847,24.6224329 C82.5402362,24.6224329 82.1050878,24.4592759 81.8059233,24.1601547 C78.4063262,20.9242071 76.2849776,18.1505378 76.2849776,14.7242404 C76.2849776,10.1830368 79.9837392,7.13743908 84.7703719,7.11024624 C89.5570047,7.11024624 93.2557663,10.1830368 93.2557663,14.7242404 C93.2829631,18.1777307 91.1616145,20.9242071 87.7620174,24.1601547 L87.7620174,24.1601547 Z M151.076114,24.9759398 C150.94013,25.111904 150.749753,25.1934825 150.559375,25.1934825 L147.159778,25.1934825 C146.969401,25.1934825 146.779023,25.111904 146.643039,24.9759398 C142.808294,21.4136782 140.387781,18.5040447 140.387781,14.8330118 C140.387781,10.2918081 144.086542,7.24621042 148.873175,7.21901759 C153.659808,7.21901759 157.358569,10.2918081 157.358569,14.8330118 C157.331373,18.5312375 154.910859,21.4136782 151.076114,24.9759398 L151.076114,24.9759398 Z" id="Shape"></path>
            </g>
        </g>
    </g>
</svg>