<?xml version="1.0" encoding="UTF-8" standalone="no"?>
<svg width="51px" height="46px" viewBox="0 0 51 46" version="1.1" xmlns="http://www.w3.org/2000/svg" xmlns:xlink="http://www.w3.org/1999/xlink" xmlns:sketch="http://www.bohemiancoding.com/sketch/ns">
    <!-- Generator: Sketch 3.4.4 (17249) - http://www.bohemiancoding.com/sketch -->
    <title>mouseLogo</title>
    <desc>Created with Sketch.</desc>
    <defs></defs>
    <g id="assets" stroke="none" stroke-width="1" fill="none" fill-rule="evenodd" sketch:type="MSPage">
        <g id="mouseLogo" sketch:type="MSLayerGroup" fill="#FFFFFF">
            <path d="M19.870293,25.8865658 L15.7287077,21.7596751 C15.2636265,21.2962441 14.5106675,21.2962441 14.0455863,21.7596751 C13.5805051,22.2231062 13.5805051,22.9733936 14.0455863,23.4368247 L18.1871716,27.5637153 C18.6522528,28.0271464 19.4052118,28.0271464 19.870293,27.5637153 C20.3353742,27.1002843 20.3353742,26.3499969 19.870293,25.8865658 L19.870293,25.8865658 L19.870293,25.8865658 Z" id="Shape" opacity="0.87" sketch:type="MSShapeGroup"></path>
            <path d="M15.7287077,27.5637153 L19.870293,23.4368247 C20.3353742,22.9733936 20.3353742,22.2231062 19.870293,21.7596751 C19.4052118,21.2962441 18.6522528,21.2962441 18.1871716,21.7596751 L14.0455863,25.8865658 C13.5805051,26.3499969 13.5805051,27.1002843 14.0455863,27.5637153 C14.5106675,28.0271464 15.2636265,28.0271464 15.7287077,27.5637153 L15.7287077,27.5637153 L15.7287077,27.5637153 Z" id="Shape-Copy" opacity="0.87" sketch:type="MSShapeGroup"></path>
            <path d="M37.4564999,25.8865658 L33.3149146,21.7596751 C32.8498334,21.2962441 32.0968744,21.2962441 31.6317932,21.7596751 C31.166712,22.2231062 31.166712,22.9733936 31.6317932,23.4368247 L35.7733785,27.5637153 C36.2384597,28.0271464 36.9914187,28.0271464 37.4564999,27.5637153 C37.9215811,27.1002843 37.9215811,26.3499969 37.4564999,25.8865658 L37.4564999,25.8865658 L37.4564999,25.8865658 Z" id="Shape-Copy-3" opacity="0.87" sketch:type="MSShapeGroup"></path>
            <path d="M33.3149146,27.5637153 L37.4564999,23.4368247 C37.9215811,22.9733936 37.9215811,22.2231062 37.4564999,21.7596751 C36.9914187,21.2962441 36.2384597,21.2962441 35.7733785,21.7596751 L31.6317932,25.8865658 C31.166712,26.3499969 31.166712,27.1002843 31.6317932,27.5637153 C32.0968744,28.0271464 32.8498334,28.0271464 33.3149146,27.5637153 L33.3149146,27.5637153 L33.3149146,27.5637153 Z" id="Shape-Copy-4" opacity="0.87" sketch:type="MSShapeGroup"></path>
            <path d="M50.8118276,11.1569714 C50.8118276,5.10512381 45.8709828,0.181371429 39.7971466,0.181371429 C33.7233103,0.181371429 28.7820259,5.10468571 28.7820259,11.1569714 C28.7820259,11.559581 28.8123621,11.9617524 28.8563276,12.3612952 L22.0931121,12.3612952 C22.1370776,11.9621905 22.1674138,11.5604571 22.1674138,11.1569714 C22.1674138,5.10512381 17.226569,0.181371429 11.1527328,0.181371429 C5.07889655,0.181371429 0.13937069,5.10468571 0.13937069,11.1569714 C0.13937069,15.7556571 3.06747414,19.8325714 7.33476724,21.4136571 L7.33432759,21.4434476 C7.32641379,21.9358667 7.31674138,22.5124 7.31674138,26.68 C7.31674138,26.9831619 7.43325,27.2744952 7.64208621,27.494419 L24.2557759,45.0094667 C24.9411983,45.7629905 25.7747845,46.0004381 26.6936638,45.0094667 L43.3086724,27.494419 C43.5179483,27.2744952 43.6340172,26.9836 43.6340172,26.68 C43.6340172,22.5207238 43.6234655,21.937181 43.6155517,21.4456381 L43.6151121,21.4140952 C47.8832845,19.8330095 50.8118276,15.7556571 50.8118276,11.1569714 L50.8118276,11.1569714 Z M25.4753793,42.8408952 L21.3228362,38.4630095 C23.7426983,36.8705333 27.0884741,36.9524571 29.4212845,38.681181 L25.4753793,42.8408952 L25.4753793,42.8408952 Z M42.1356724,19.4404762 C42.1198448,19.4448571 42.1092931,19.4566857 42.0939052,19.4619429 C41.5948966,19.6047619 41.2229483,20.0446095 41.2255862,20.5887238 L41.2352586,21.4876952 C41.2431724,21.955581 41.2528448,22.5084571 41.2537241,26.2086095 L31.0568017,36.9577143 C27.8226983,34.4058095 23.0133103,34.3243238 19.6838017,36.7360381 L9.69703448,26.2081714 C9.69835345,22.498381 9.7067069,21.9516381 9.71462069,21.4824381 L9.7242931,20.5878476 C9.72693103,20.0450476 9.35586207,19.6052 8.85773276,19.4619429 C8.84190517,19.4566857 8.83135345,19.444419 8.81552586,19.4400381 C5.1087931,18.4030667 2.52010345,14.9973143 2.52010345,11.1565333 C2.52010345,6.4124 6.39302586,2.55321905 11.1527328,2.55321905 C15.9137586,2.55321905 19.786681,6.4124 19.786681,11.1565333 C19.786681,11.5648381 19.6947931,11.96 19.6380776,12.3608571 L13.9247586,12.3608571 C13.2670345,12.3608571 12.7346121,12.8913905 12.7346121,13.546781 C12.7346121,14.2021714 13.2670345,14.7327048 13.9247586,14.7327048 L36.4205948,14.7327048 C37.078319,14.7327048 37.6107414,14.2021714 37.6107414,13.546781 C37.6107414,12.8913905 37.078319,12.3608571 36.4205948,12.3608571 L31.3118017,12.3608571 C31.2550862,11.9595619 31.1631983,11.5622095 31.1631983,11.1565333 C31.1631983,6.4124 35.0361207,2.55321905 39.7971466,2.55321905 C44.5581724,2.55321905 48.4310948,6.4124 48.4310948,11.1565333 C48.4310948,14.9977524 45.8424052,18.4035048 42.1356724,19.4404762 L42.1356724,19.4404762 Z" id="Shape" opacity="0.866954291" sketch:type="MSShapeGroup"></path>
        </g>
    </g>
</svg>