<?xml version="1.0" encoding="UTF-8" standalone="no"?>
<svg width="53px" height="53px" viewBox="0 0 53 53" version="1.1" xmlns="http://www.w3.org/2000/svg" xmlns:xlink="http://www.w3.org/1999/xlink" xmlns:sketch="http://www.bohemiancoding.com/sketch/ns">
    <!-- Generator: Sketch 3.4.4 (17249) - http://www.bohemiancoding.com/sketch -->
    <title>phone-icn</title>
    <desc>Created with Sketch.</desc>
    <defs>
        <filter x="-50%" y="-50%" width="200%" height="200%" filterUnits="objectBoundingBox" id="filter-1">
            <feOffset dx="0" dy="2" in="SourceAlpha" result="shadowOffsetOuter1"></feOffset>
            <feGaussianBlur stdDeviation="2" in="shadowOffsetOuter1" result="shadowBlurOuter1"></feGaussianBlur>
            <feColorMatrix values="0 0 0 0 0   0 0 0 0 0   0 0 0 0 0  0 0 0 0.35 0" in="shadowBlurOuter1" type="matrix" result="shadowMatrixOuter1"></feColorMatrix>
            <feMerge>
                <feMergeNode in="shadowMatrixOuter1"></feMergeNode>
                <feMergeNode in="SourceGraphic"></feMergeNode>
            </feMerge>
        </filter>
        <ellipse id="path-2" cx="22.450756" cy="22.6523993" rx="22.450756" ry="22.6523993"></ellipse>
    </defs>
    <g id="assets" stroke="none" stroke-width="1" fill="none" fill-rule="evenodd" sketch:type="MSPage">
        <g id="phone-icn" sketch:type="MSLayerGroup" transform="translate(3.777778, 2.000000)">
            <g id="Oval-19-Copy-3" filter="url(#filter-1)">
                <use fill="#BA68C8" fill-rule="evenodd" sketch:type="MSShapeGroup" xlink:href="#path-2"></use>
                <use fill="none" xlink:href="#path-2"></use>
            </g>
            <path d="M28.3440794,25.2007943 C26.6602727,26.8997242 26.6602727,28.5986542 24.976466,28.5986542 C23.2926593,28.5986542 21.6088526,26.8997242 19.9250459,25.2007943 C18.2412392,23.5018643 16.5574325,21.8029344 16.5574325,20.1040044 C16.5574325,18.4050745 18.2412392,18.4050745 19.9250459,16.7061445 C21.6088526,15.0072146 16.5574325,9.91042471 14.8736258,9.91042471 C13.1898191,9.91042471 9.82220573,15.0072146 9.82220573,15.0072146 C9.82220573,18.4050745 13.2820075,25.2938107 16.5574325,28.5986542 C19.8328575,31.9034977 26.6602727,35.394374 30.0278861,35.394374 C30.0278861,35.394374 35.0793062,31.9965141 35.0793062,30.2975841 C35.0793062,28.5986542 30.0278861,23.5018643 28.3440794,25.2007943 L28.3440794,25.2007943 Z" id="Shape" fill="#FFFFFF" sketch:type="MSShapeGroup"></path>
        </g>
    </g>
</svg>