<?xml version="1.0" encoding="UTF-8" standalone="no"?>
<svg width="53px" height="53px" viewBox="0 0 53 53" version="1.1" xmlns="http://www.w3.org/2000/svg" xmlns:xlink="http://www.w3.org/1999/xlink" xmlns:sketch="http://www.bohemiancoding.com/sketch/ns">
    <!-- Generator: Sketch 3.4.4 (17249) - http://www.bohemiancoding.com/sketch -->
    <title>twitter-icn</title>
    <desc>Created with Sketch.</desc>
    <defs>
        <filter x="-50%" y="-50%" width="200%" height="200%" filterUnits="objectBoundingBox" id="filter-1">
            <feOffset dx="0" dy="2" in="SourceAlpha" result="shadowOffsetOuter1"></feOffset>
            <feGaussianBlur stdDeviation="2" in="shadowOffsetOuter1" result="shadowBlurOuter1"></feGaussianBlur>
            <feColorMatrix values="0 0 0 0 0   0 0 0 0 0   0 0 0 0 0  0 0 0 0.35 0" in="shadowBlurOuter1" type="matrix" result="shadowMatrixOuter1"></feColorMatrix>
            <feMerge>
                <feMergeNode in="shadowMatrixOuter1"></feMergeNode>
                <feMergeNode in="SourceGraphic"></feMergeNode>
            </feMerge>
        </filter>
        <ellipse id="path-2" cx="22.450756" cy="22.6523993" rx="22.450756" ry="22.6523993"></ellipse>
    </defs>
    <g id="assets" stroke="none" stroke-width="1" fill="none" fill-rule="evenodd" sketch:type="MSPage">
        <g id="twitter-icn" sketch:type="MSLayerGroup" transform="translate(4.222222, 2.000000)">
            <g id="Oval-19-Copy-2" filter="url(#filter-1)">
                <use fill="#BA68C8" fill-rule="evenodd" sketch:type="MSShapeGroup" xlink:href="#path-2"></use>
                <use fill="none" xlink:href="#path-2"></use>
            </g>
            <g id="twitter20" transform="translate(12.628550, 9.494650)" fill="#FFFFFF" sketch:type="MSShapeGroup">
                <g id="Icons">
                    <path d="M17.0002408,21.2353659 L10.229656,21.2353659 C9.28851793,21.2353659 8.48823042,20.8955799 7.83062274,20.2128618 C7.16996635,19.5295144 6.84344904,18.7036457 6.84344904,17.7277048 L6.84344904,15.2412894 L16.4908007,15.2412894 C17.3609037,15.2412894 18.1102777,14.9184927 18.7328252,14.2776185 C19.3553726,13.6313959 19.667561,12.859012 19.667561,11.9601522 C19.667561,11.0581463 19.3550678,10.2867062 18.7309959,9.64268593 C18.1063144,9.00023872 17.3548063,8.67807126 16.4810448,8.67807126 L6.84344904,8.67807126 L6.84344904,3.54069586 C6.84344904,2.56853039 6.50748073,1.73636933 5.84042203,1.04295422 C5.17610718,0.34828064 4.37277096,0 3.4395595,0 C2.48043397,0 1.66368341,0.343246773 0.999368556,1.02250414 C0.332919604,1.70396382 0,2.54336106 0,3.54384203 L0,17.7299071 C0,20.647662 0.999368556,23.1403698 2.99902028,25.2092889 C5.00050124,27.2819835 7.41294888,28.3154992 10.2336194,28.3154992 L17.0023749,28.3154992 C17.9422935,28.3154992 18.7489834,27.9672185 19.4200054,27.272545 C20.0916371,26.5813322 20.4266908,25.7472834 20.4266908,24.7760618 C20.4266908,23.8045255 20.0916371,22.9720499 19.4200054,22.2776909 C18.7486785,21.584905 17.9407692,21.2353659 17.0002408,21.2353659 L17.0002408,21.2353659 Z" id="Twitter"></path>
                </g>
            </g>
        </g>
    </g>
</svg>